# xmcd
#
# Track frame offsets: 
#        150
#        11307
#        25959
#        36921
#        46076
#        55915
#        67291
#        75132
#        85301
#        96265
#        107101
#        118255
#        133021
#        146614
#        159322
#        170279
#        183065
#        193509
#        205975
#        217102
#        226927
#        237595
#        249524
#        260672
#        271703
#        282064
#
# Disc length: 3909 seconds
#
# Revision: 0
# Processed by: cddbd v1.5.2PL0 Copyright (c) Steve Scherf et al.
# Submitted via: ExactAudioCopyFreeDBPlugin 1.0
#
DISCID=6b0f431a
DTITLE=Various Artist - The History of New Orleans Rhythm and Blues, Vo
DTITLE=lume 2:  Jazz, Blues and Creole Roots, 1947-1953
DYEAR=2011
DGENRE=Rhythm and Blues
TTITLE0=James Wayne - Junco Partner
TTITLE1=Clarence Garlow - Bon Ton Roula
TTITLE2=Archibald - Soon as I Go Home
TTITLE3=The Royal Kings - Teachin' and Preachin'
TTITLE4=Fats Domino - Goin' Home
TTITLE5=Lloyd Price - Lawdy Miss Clawdy
TTITLE6=Dave Bartholomew - Kiss Me Baby
TTITLE7=Papa Lightfoot - Jumpin' with Jarvis
TTITLE8=Smiley Lewis - The Bells are Ringing
TTITLE9=Professor Longhair - Tipitina
TTITLE10=James "Sugar Boy" Crawford - Overboard
TTITLE11=The Humming Four - Mother's Love
TTITLE12=Guitar Slim - The Things That I Used to Do
TTITLE13=Ray Charles - Feelin' Sad
TTITLE14=James "Sugar Boy" Crawford - Jockomo
TTITLE15=Dave Bartholomew - Who Drank My Beer
TTITLE16=Smiley Lewis - Big Mamou
TTITLE17=Big Joe Turner - Oke-She-Moke-She-Pop
TTITLE18=Guitar Slim - Well I Done Got Over It
TTITLE19=Professor Longhair - Who's Been Foolin' You
TTITLE20=Shirley and Lee - Baby
TTITLE21=The Hawks - I-Yi
TTITLE22=Fat Man Mathews - Down the Line
TTITLE23=Jody Levens - Mardi Gras Mambo
TTITLE24=Bobby Mitchell - Rack 'Em Back
TTITLE25=Fats Domino - Going to the River
EXTD=
EXTT0=
EXTT1=
EXTT2=
EXTT3=
EXTT4=
EXTT5=
EXTT6=
EXTT7=
EXTT8=
EXTT9=
EXTT10=
EXTT11=
EXTT12=
EXTT13=
EXTT14=
EXTT15=
EXTT16=
EXTT17=
EXTT18=
EXTT19=
EXTT20=
EXTT21=
EXTT22=
EXTT23=
EXTT24=
EXTT25=
PLAYORDER=
